<svg xmlns="http://www.w3.org/2000/svg" width="1920" height="1080" preserveAspectRatio="none"
    viewBox="0 0 1920 1080">
    <g mask="url(&quot;#SvgjsMask1024&quot;)" fill="none">
        <rect width="1920" height="1080" x="0" y="0" fill="rgba(175, 206, 238, 1)"></rect>
        <path
            d="M1397.312806455822 849.2329765726158L1534.973184506073 832.3304074999879 1440.7891418720058 634.2911249609253z"
            fill="rgba(90, 145, 205, 0.4)" class="triangle-float1"></path>
        <path d="M331.25 693.25 a325.32 325.32 0 1 0 650.64 0 a325.32 325.32 0 1 0 -650.64 0z"
            fill="rgba(90, 145, 205, 0.4)" class="triangle-float1"></path>
        <path d="M1465.14 359.02 a264.31 264.31 0 1 0 528.62 0 a264.31 264.31 0 1 0 -528.62 0z"
            fill="rgba(90, 145, 205, 0.4)" class="triangle-float3"></path>
        <path
            d="M731.907630632345 432.1095443091212L568.0870124329081 308.66185397459196 444.6393220983789 472.4824721740289 608.4599402978158 595.930162508558z"
            fill="rgba(90, 145, 205, 0.4)" class="triangle-float1"></path>
        <path d="M1575.22 1055.08 a262.57 262.57 0 1 0 525.14 0 a262.57 262.57 0 1 0 -525.14 0z"
            fill="rgba(90, 145, 205, 0.4)" class="triangle-float3"></path>
        <path
            d="M478.365,192.711C521.667,190.78,559.56,166.937,582.214,129.983C606.075,91.061,615.771,43.357,594.779,2.815C572.172,-40.846,527.528,-71.2,478.365,-70.583C430.12,-69.978,390.975,-36.142,366.904,5.674C342.896,47.381,332.5,98.68,357.135,140.019C381.311,180.588,431.186,194.815,478.365,192.711"
            fill="rgba(90, 145, 205, 0.4)" class="triangle-float2"></path>
        <path d="M1378.06 655.77 a268.01 268.01 0 1 0 536.02 0 a268.01 268.01 0 1 0 -536.02 0z"
            fill="rgba(90, 145, 205, 0.4)" class="triangle-float1"></path>
        <path
            d="M502.7924279349342 134.32030666703724L383.6615613114724-42.29846633400433 207.0427883104308 76.8324002894575 326.17365493389264 253.45117329049907z"
            fill="rgba(90, 145, 205, 0.4)" class="triangle-float2"></path>
        <path
            d="M249.342,466.657C342.091,471.249,434.752,431.573,482.608,351.991C531.823,270.149,530.687,165.027,479.024,84.708C430.958,9.982,338.187,-9.764,249.342,-10.662C158.404,-11.581,56.829,1.155,11.475,79.982C-33.805,158.68,5.354,253.382,52.926,330.715C97.641,403.403,164.106,462.437,249.342,466.657"
            fill="rgba(90, 145, 205, 0.4)" class="triangle-float3"></path>
        <path d="M1171.86 885.1 a350.91 350.91 0 1 0 701.82 0 a350.91 350.91 0 1 0 -701.82 0z"
            fill="rgba(90, 145, 205, 0.4)" class="triangle-float3"></path>
        <path
            d="M189.051,919.519C282.33,916.639,372.961,879.139,420.811,799.017C469.838,716.925,468.845,614.082,420.855,531.379C373.045,448.987,284.29,397.651,189.051,399.621C96.982,401.526,21.94,462.451,-26.714,540.638C-78.949,624.579,-117.818,728.223,-68.893,814.135C-19.63,900.64,89.549,922.591,189.051,919.519"
            fill="rgba(90, 145, 205, 0.4)" class="triangle-float1"></path>
        <path
            d="M736.877,507.304C795.877,510.203,847.128,470.699,877.201,419.856C907.891,367.969,919.158,303.202,888.193,251.478C857.898,200.872,795.713,181.323,736.877,185.457C684.914,189.108,642.921,224.478,618.395,270.434C595.399,313.525,596.716,363.463,618.566,407.146C643.341,456.676,681.563,504.586,736.877,507.304"
            fill="rgba(90, 145, 205, 0.4)" class="triangle-float3"></path>
    </g>
    <defs>
        <mask>
            <rect width="1920" height="1080" fill="#ffffff"></rect>
        </mask>
        <style>
            @keyframes float1 {
            0%{transform: translate(0, 0)}
            50%{transform: translate(-10px, 0)}
            100%{transform: translate(0, 0)}
            }

            .triangle-float1 {
            animation: float1 5s infinite;
            }

            @keyframes float2 {
            0%{transform: translate(0, 0)}
            50%{transform: translate(-5px, -5px)}
            100%{transform: translate(0, 0)}
            }

            .triangle-float2 {
            animation: float2 4s infinite;
            }

            @keyframes float3 {
            0%{transform: translate(0, 0)}
            50%{transform: translate(0, -10px)}
            100%{transform: translate(0, 0)}
            }

            .triangle-float3 {
            animation: float3 6s infinite;
            }
        </style>
    </defs>
</svg>